<?xml version="1.0" encoding="iso-8859-1"?>
<!-- Uploaded to: SVG Repo, www.svgrepo.com, Generator: SVG Repo Mixer Tools -->
<svg height="800px" width="800px" version="1.1" id="Layer_1" xmlns="http://www.w3.org/2000/svg" xmlns:xlink="http://www.w3.org/1999/xlink" 
	 viewBox="0 0 512 512" xml:space="preserve">
<path style="fill:#BC9A5E;" d="M473.816,30.118v94.655L38.339,141.601c0.055-7.694-0.15-14.211-0.153-22.206l0,0
	c0.083-61.212,49.73-110.79,110.942-110.79H452.17C464.124,8.605,473.816,18.236,473.816,30.118z"/>
<path style="fill:#916D42;" d="M466.42,25.105c3.044-2.29,7.396-0.118,7.396,3.69v13.303v82.674v287.015
	c0,8.507-7.368,15.407-13.983,20.069l-93,68.444l8.103-391.663l-4.212-11.535L466.42,25.105z"/>
<path style="fill:#CAA661;" d="M80.891,503.395c-23.399,0-42.553-19.091-42.553-42.425V122.183
	c0-23.335,19.153-42.427,42.553-42.427h268.997c23.408,0,42.556,19.092,42.556,42.427V460.97c0,23.335-19.147,42.425-42.556,42.425
	H80.891L80.891,503.395z"/>
<path style="fill:#FF4328;" d="M215.393,379.514c-59.557,0-108.277-48.579-108.277-107.949V235.58h216.55v35.984
	C323.666,330.935,274.941,379.514,215.393,379.514L215.393,379.514L215.393,379.514z"/>
<path style="fill:#7A1700;" d="M221.186,331.373c-10.475,6.028-23.988,2.418-30.033-8.023l-9.123-15.75
	c-4.489-7.75-3.641-17.164,1.371-23.97l14.852-8.694c8.528-1.077,17.305,2.887,21.857,10.747l9.123,15.749
	C235.275,311.874,231.654,325.345,221.186,331.373z"/>
<path d="M482.144,26.106C480.166,11.389,467.483,0,452.17,0H149.128C83.301,0,29.671,53.556,29.58,119.399
	c0.001,3.593,0.043,6.89,0.084,10.129c0.029,2.26,0.055,4.454,0.068,6.682v324.76c0,28.139,22.95,51.03,51.158,51.03h268.997
	c6.22,0,12.183-1.115,17.703-3.153c1.541-0.137,3.048-0.663,4.343-1.615l0.951-0.7c5.153-2.599,9.805-6.038,13.78-10.141
	l78.2-57.554c11.65-8.231,17.555-17.331,17.555-27.049V30.118v-1.322C482.421,27.874,482.325,26.974,482.144,26.106z M149.128,17.21
	H452.17c2.744,0,5.285,0.852,7.386,2.29l-80.655,60.683c-8.251-5.689-18.246-9.031-29.013-9.031H80.891
	c-9.139,0-17.717,2.414-25.149,6.619C71.761,42.116,107.6,17.21,149.128,17.21z M80.891,494.79
	c-18.719,0-33.948-15.172-33.948-33.82V122.183c0-18.649,15.229-33.821,33.948-33.821h268.997c18.72,0,33.951,15.172,33.951,33.821
	V460.97c0,18.648-15.23,33.82-33.951,33.82H80.891z M465.211,411.789c0,3.709-3.67,8.338-10.335,13.035
	c-0.048,0.034-0.096,0.069-0.144,0.103l-53.822,39.611c0.083-1.18,0.139-2.367,0.139-3.568V122.183
	c0-11.133-3.603-21.436-9.693-29.835l73.855-55.566V411.789z M333.678,421.822c0,4.752-3.852,8.605-8.605,8.605H105.709
	c-4.753,0-8.605-3.853-8.605-8.605c0-4.752,3.852-8.605,8.605-8.605h219.364C329.825,413.217,333.678,417.07,333.678,421.822z
	 M215.394,388.119c64.446,0,116.877-52.286,116.877-116.554V235.58c0-4.752-3.853-8.605-8.605-8.605H170.12l-49.154-83.794
	c-2.405-4.099-7.678-5.472-11.776-3.069c-4.099,2.405-5.473,7.677-3.069,11.776l44.046,75.087h-43.051
	c-4.753,0-8.605,3.853-8.605,8.605v35.984C98.511,335.832,150.945,388.119,215.394,388.119z M115.721,244.185h44.542l18.785,32.023
	c-1.007,0.591-1.882,1.379-2.575,2.319c-7.219,9.8-7.961,22.906-1.89,33.386l9.123,15.749c5.441,9.398,15.613,15.236,26.548,15.236
	c5.336,0,10.6-1.407,15.226-4.068c7.063-4.067,12.119-10.658,14.237-18.559c2.115-7.891,1.037-16.112-3.037-23.153l-9.122-15.749
	c-5.435-9.384-15.602-15.213-26.534-15.213c-1.283,0-2.577,0.082-3.848,0.242c-1.154,0.145-2.265,0.524-3.269,1.111l-0.006,0.004
	l-13.684-23.327h134.844v27.379c0,54.779-44.71,99.344-99.667,99.344c-54.959,0-99.673-44.566-99.673-99.344
	C115.721,271.567,115.721,244.185,115.721,244.185z M200.883,283.366c4.881-0.065,9.39,2.5,11.781,6.629l9.121,15.745
	c1.766,3.053,2.231,6.631,1.308,10.074c-0.926,3.454-3.129,6.331-6.2,8.101c-2.016,1.16-4.312,1.773-6.64,1.773
	c-4.815,0-9.279-2.548-11.654-6.651l-9.123-15.752c-2.377-4.104-2.339-9.147,0-13.241L200.883,283.366z"/>
</svg>